# xmcd
#
# Track frame offsets: 
#        182
#        22405
#        41822
#        58715
#        79390
#        98902
#        119565
#        140027
#        178052
#        196997
#        212837
#        233300
#
# Disc length: 3366 seconds
#
# Revision: 10
# Processed by: cddbd v1.5.2PL0 Copyright (c) Steve Scherf et al.
# Submitted via: ExactAudioCopy v1.3
#
DISCID=b40d240c
DTITLE=George Thorogood and The Destroyers - The Baddest Of George Thoro
DTITLE=good and The Destroyers
DYEAR=1992
DGENRE=Rock
TTITLE0=Bad To The Bone
TTITLE1=Move It On Over
TTITLE2=I'm A Steady Rollin' Man
TTITLE3=You Talk Too Much
TTITLE4=Who Do You Love?
TTITLE5=Gear Jammer
TTITLE6=I Drink Alone
TTITLE7=One Bourbon, One Scotch, One Beer
TTITLE8=If You Don't Start Drinkin' (I'm Gonna Leave)
TTITLE9=Treat Her Right
TTITLE10=Long Gone
TTITLE11=Louie To Frisco
EXTD=
EXTT0=
EXTT1=
EXTT2=
EXTT3=
EXTT4=
EXTT5=
EXTT6=
EXTT7=
EXTT8=
EXTT9=
EXTT10=
EXTT11=
PLAYORDER=
